<mxfile host="app.diagrams.net" modified="2024-01-21T08:28:42.770Z" agent="Mozilla/5.0 (Windows NT 10.0; Win64; x64) AppleWebKit/537.36 (KHTML, like Gecko) Chrome/120.0.0.0 Safari/537.36 Edg/120.0.0.0" etag="mhZLzJIT0KXuosz4DqbG" version="22.1.21" type="github">
  <diagram name="Trang-1" id="DwMynhKnTojVxTFCjsAo">
    <mxGraphModel dx="1101" dy="1813" grid="1" gridSize="10" guides="1" tooltips="1" connect="1" arrows="1" fold="1" page="1" pageScale="1" pageWidth="827" pageHeight="1169" math="0" shadow="0">
      <root>
        <mxCell id="0" />
        <mxCell id="1" parent="0" />
        <mxCell id="rk8uSaijc1zRN3GsCyd2-28" style="edgeStyle=orthogonalEdgeStyle;rounded=0;orthogonalLoop=1;jettySize=auto;html=1;entryX=1;entryY=0.5;entryDx=0;entryDy=0;" edge="1" parent="1" source="rk8uSaijc1zRN3GsCyd2-1" target="rk8uSaijc1zRN3GsCyd2-21">
          <mxGeometry relative="1" as="geometry">
            <Array as="points">
              <mxPoint x="360" y="115" />
            </Array>
          </mxGeometry>
        </mxCell>
        <mxCell id="rk8uSaijc1zRN3GsCyd2-42" style="edgeStyle=orthogonalEdgeStyle;rounded=0;orthogonalLoop=1;jettySize=auto;html=1;entryX=0;entryY=1;entryDx=0;entryDy=0;" edge="1" parent="1" source="rk8uSaijc1zRN3GsCyd2-1" target="rk8uSaijc1zRN3GsCyd2-10">
          <mxGeometry relative="1" as="geometry">
            <Array as="points">
              <mxPoint x="400" y="190" />
              <mxPoint x="400" y="190" />
            </Array>
          </mxGeometry>
        </mxCell>
        <mxCell id="rk8uSaijc1zRN3GsCyd2-47" style="edgeStyle=orthogonalEdgeStyle;rounded=0;orthogonalLoop=1;jettySize=auto;html=1;entryX=0.5;entryY=0;entryDx=0;entryDy=0;" edge="1" parent="1" source="rk8uSaijc1zRN3GsCyd2-1" target="rk8uSaijc1zRN3GsCyd2-3">
          <mxGeometry relative="1" as="geometry">
            <Array as="points">
              <mxPoint x="297" y="260" />
            </Array>
          </mxGeometry>
        </mxCell>
        <mxCell id="rk8uSaijc1zRN3GsCyd2-59" style="edgeStyle=orthogonalEdgeStyle;rounded=0;orthogonalLoop=1;jettySize=auto;html=1;entryX=0;entryY=0.5;entryDx=0;entryDy=0;" edge="1" parent="1" source="rk8uSaijc1zRN3GsCyd2-1" target="rk8uSaijc1zRN3GsCyd2-18">
          <mxGeometry relative="1" as="geometry">
            <Array as="points">
              <mxPoint x="610" y="235" />
              <mxPoint x="610" y="145" />
            </Array>
          </mxGeometry>
        </mxCell>
        <mxCell id="rk8uSaijc1zRN3GsCyd2-60" style="edgeStyle=orthogonalEdgeStyle;rounded=0;orthogonalLoop=1;jettySize=auto;html=1;entryX=0;entryY=0.5;entryDx=0;entryDy=0;" edge="1" parent="1" source="rk8uSaijc1zRN3GsCyd2-1" target="rk8uSaijc1zRN3GsCyd2-12">
          <mxGeometry relative="1" as="geometry">
            <mxPoint x="610" y="320" as="targetPoint" />
            <Array as="points">
              <mxPoint x="610" y="235" />
              <mxPoint x="610" y="325" />
            </Array>
          </mxGeometry>
        </mxCell>
        <mxCell id="rk8uSaijc1zRN3GsCyd2-61" style="edgeStyle=orthogonalEdgeStyle;rounded=0;orthogonalLoop=1;jettySize=auto;html=1;entryX=1;entryY=0.5;entryDx=0;entryDy=0;" edge="1" parent="1" source="rk8uSaijc1zRN3GsCyd2-1" target="rk8uSaijc1zRN3GsCyd2-22">
          <mxGeometry relative="1" as="geometry">
            <Array as="points">
              <mxPoint x="383" y="30" />
            </Array>
          </mxGeometry>
        </mxCell>
        <mxCell id="rk8uSaijc1zRN3GsCyd2-62" style="edgeStyle=orthogonalEdgeStyle;rounded=0;orthogonalLoop=1;jettySize=auto;html=1;entryX=0.25;entryY=0;entryDx=0;entryDy=0;" edge="1" parent="1" source="rk8uSaijc1zRN3GsCyd2-1" target="rk8uSaijc1zRN3GsCyd2-5">
          <mxGeometry relative="1" as="geometry">
            <Array as="points">
              <mxPoint x="365" y="290" />
              <mxPoint x="365" y="290" />
            </Array>
          </mxGeometry>
        </mxCell>
        <mxCell id="rk8uSaijc1zRN3GsCyd2-63" style="edgeStyle=orthogonalEdgeStyle;rounded=0;orthogonalLoop=1;jettySize=auto;html=1;entryX=0;entryY=0.5;entryDx=0;entryDy=0;" edge="1" parent="1" source="rk8uSaijc1zRN3GsCyd2-1" target="rk8uSaijc1zRN3GsCyd2-16">
          <mxGeometry relative="1" as="geometry">
            <Array as="points">
              <mxPoint x="390" y="285" />
            </Array>
          </mxGeometry>
        </mxCell>
        <mxCell id="rk8uSaijc1zRN3GsCyd2-64" style="edgeStyle=orthogonalEdgeStyle;rounded=0;orthogonalLoop=1;jettySize=auto;html=1;entryX=0;entryY=0.5;entryDx=0;entryDy=0;" edge="1" parent="1" source="rk8uSaijc1zRN3GsCyd2-1" target="rk8uSaijc1zRN3GsCyd2-17">
          <mxGeometry relative="1" as="geometry">
            <Array as="points">
              <mxPoint x="383" y="385" />
            </Array>
          </mxGeometry>
        </mxCell>
        <mxCell id="rk8uSaijc1zRN3GsCyd2-67" style="edgeStyle=orthogonalEdgeStyle;rounded=0;orthogonalLoop=1;jettySize=auto;html=1;" edge="1" parent="1" source="rk8uSaijc1zRN3GsCyd2-1" target="rk8uSaijc1zRN3GsCyd2-25">
          <mxGeometry relative="1" as="geometry">
            <Array as="points">
              <mxPoint x="430" y="200" />
              <mxPoint x="430" y="200" />
            </Array>
          </mxGeometry>
        </mxCell>
        <mxCell id="rk8uSaijc1zRN3GsCyd2-69" style="edgeStyle=orthogonalEdgeStyle;rounded=0;orthogonalLoop=1;jettySize=auto;html=1;entryX=0;entryY=0.5;entryDx=0;entryDy=0;" edge="1" parent="1" source="rk8uSaijc1zRN3GsCyd2-1" target="rk8uSaijc1zRN3GsCyd2-19">
          <mxGeometry relative="1" as="geometry">
            <Array as="points">
              <mxPoint x="610" y="235" />
              <mxPoint x="610" y="55" />
            </Array>
          </mxGeometry>
        </mxCell>
        <mxCell id="rk8uSaijc1zRN3GsCyd2-78" style="edgeStyle=orthogonalEdgeStyle;rounded=0;orthogonalLoop=1;jettySize=auto;html=1;" edge="1" parent="1" source="rk8uSaijc1zRN3GsCyd2-1">
          <mxGeometry relative="1" as="geometry">
            <mxPoint x="700" y="235" as="targetPoint" />
          </mxGeometry>
        </mxCell>
        <mxCell id="rk8uSaijc1zRN3GsCyd2-79" value="" style="edgeStyle=orthogonalEdgeStyle;rounded=0;orthogonalLoop=1;jettySize=auto;html=1;" edge="1" parent="1" source="rk8uSaijc1zRN3GsCyd2-1" target="rk8uSaijc1zRN3GsCyd2-13">
          <mxGeometry relative="1" as="geometry">
            <Array as="points">
              <mxPoint x="310" y="220" />
              <mxPoint x="310" y="220" />
            </Array>
          </mxGeometry>
        </mxCell>
        <mxCell id="rk8uSaijc1zRN3GsCyd2-1" value="HomePage" style="whiteSpace=wrap;html=1;aspect=fixed;" vertex="1" parent="1">
          <mxGeometry x="347.5" y="200" width="70" height="70" as="geometry" />
        </mxCell>
        <mxCell id="rk8uSaijc1zRN3GsCyd2-3" value="AboutUs&lt;br&gt;ContactUs" style="whiteSpace=wrap;html=1;aspect=fixed;" vertex="1" parent="1">
          <mxGeometry x="262.5" y="390" width="70" height="70" as="geometry" />
        </mxCell>
        <mxCell id="rk8uSaijc1zRN3GsCyd2-84" value="" style="edgeStyle=orthogonalEdgeStyle;rounded=0;orthogonalLoop=1;jettySize=auto;html=1;" edge="1" parent="1" source="rk8uSaijc1zRN3GsCyd2-4" target="rk8uSaijc1zRN3GsCyd2-13">
          <mxGeometry relative="1" as="geometry">
            <Array as="points">
              <mxPoint x="240" y="290" />
              <mxPoint x="240" y="290" />
            </Array>
          </mxGeometry>
        </mxCell>
        <mxCell id="rk8uSaijc1zRN3GsCyd2-4" value="User register" style="whiteSpace=wrap;html=1;aspect=fixed;" vertex="1" parent="1">
          <mxGeometry x="192.5" y="310" width="70" height="70" as="geometry" />
        </mxCell>
        <mxCell id="rk8uSaijc1zRN3GsCyd2-49" style="edgeStyle=orthogonalEdgeStyle;rounded=0;orthogonalLoop=1;jettySize=auto;html=1;entryX=0.5;entryY=0;entryDx=0;entryDy=0;" edge="1" parent="1" source="rk8uSaijc1zRN3GsCyd2-5" target="rk8uSaijc1zRN3GsCyd2-26">
          <mxGeometry relative="1" as="geometry" />
        </mxCell>
        <mxCell id="rk8uSaijc1zRN3GsCyd2-5" value="Job search" style="whiteSpace=wrap;html=1;aspect=fixed;" vertex="1" parent="1">
          <mxGeometry x="347.5" y="420" width="70" height="70" as="geometry" />
        </mxCell>
        <mxCell id="rk8uSaijc1zRN3GsCyd2-54" value="" style="edgeStyle=orthogonalEdgeStyle;rounded=0;orthogonalLoop=1;jettySize=auto;html=1;" edge="1" parent="1" source="rk8uSaijc1zRN3GsCyd2-6" target="rk8uSaijc1zRN3GsCyd2-24">
          <mxGeometry relative="1" as="geometry" />
        </mxCell>
        <mxCell id="rk8uSaijc1zRN3GsCyd2-6" value="Job&#39;s detail" style="whiteSpace=wrap;html=1;aspect=fixed;" vertex="1" parent="1">
          <mxGeometry x="527.5" y="525" width="70" height="70" as="geometry" />
        </mxCell>
        <mxCell id="rk8uSaijc1zRN3GsCyd2-8" value="" style="whiteSpace=wrap;html=1;aspect=fixed;" vertex="1" parent="1">
          <mxGeometry x="527.5" y="1010" width="70" height="70" as="geometry" />
        </mxCell>
        <mxCell id="rk8uSaijc1zRN3GsCyd2-9" value="Update profile" style="whiteSpace=wrap;html=1;aspect=fixed;fillColor=#9933FF;" vertex="1" parent="1">
          <mxGeometry x="517.5" y="90" width="70" height="70" as="geometry" />
        </mxCell>
        <mxCell id="rk8uSaijc1zRN3GsCyd2-43" style="edgeStyle=orthogonalEdgeStyle;rounded=0;orthogonalLoop=1;jettySize=auto;html=1;entryX=0;entryY=0.5;entryDx=0;entryDy=0;" edge="1" parent="1" source="rk8uSaijc1zRN3GsCyd2-10" target="rk8uSaijc1zRN3GsCyd2-9">
          <mxGeometry relative="1" as="geometry" />
        </mxCell>
        <mxCell id="rk8uSaijc1zRN3GsCyd2-44" value="" style="edgeStyle=orthogonalEdgeStyle;rounded=0;orthogonalLoop=1;jettySize=auto;html=1;" edge="1" parent="1" source="rk8uSaijc1zRN3GsCyd2-10" target="rk8uSaijc1zRN3GsCyd2-15">
          <mxGeometry relative="1" as="geometry" />
        </mxCell>
        <mxCell id="rk8uSaijc1zRN3GsCyd2-10" value="User Profile" style="whiteSpace=wrap;html=1;aspect=fixed;fillColor=#742020;fillStyle=dashed;" vertex="1" parent="1">
          <mxGeometry x="400" y="90" width="70" height="70" as="geometry" />
        </mxCell>
        <mxCell id="rk8uSaijc1zRN3GsCyd2-12" value="Manage Applicants" style="whiteSpace=wrap;html=1;aspect=fixed;fillColor=#fff2cc;strokeColor=#d6b656;" vertex="1" parent="1">
          <mxGeometry x="700" y="290" width="70" height="70" as="geometry" />
        </mxCell>
        <mxCell id="rk8uSaijc1zRN3GsCyd2-40" value="" style="edgeStyle=orthogonalEdgeStyle;rounded=0;orthogonalLoop=1;jettySize=auto;html=1;" edge="1" parent="1" source="rk8uSaijc1zRN3GsCyd2-13" target="rk8uSaijc1zRN3GsCyd2-14">
          <mxGeometry relative="1" as="geometry">
            <Array as="points">
              <mxPoint x="170" y="230" />
              <mxPoint x="170" y="230" />
            </Array>
          </mxGeometry>
        </mxCell>
        <mxCell id="rk8uSaijc1zRN3GsCyd2-80" value="" style="edgeStyle=orthogonalEdgeStyle;rounded=0;orthogonalLoop=1;jettySize=auto;html=1;" edge="1" parent="1" source="rk8uSaijc1zRN3GsCyd2-13" target="rk8uSaijc1zRN3GsCyd2-1">
          <mxGeometry relative="1" as="geometry">
            <Array as="points">
              <mxPoint x="310" y="250" />
              <mxPoint x="310" y="250" />
            </Array>
          </mxGeometry>
        </mxCell>
        <mxCell id="rk8uSaijc1zRN3GsCyd2-83" value="" style="edgeStyle=orthogonalEdgeStyle;rounded=0;orthogonalLoop=1;jettySize=auto;html=1;" edge="1" parent="1" source="rk8uSaijc1zRN3GsCyd2-13" target="rk8uSaijc1zRN3GsCyd2-4">
          <mxGeometry relative="1" as="geometry">
            <Array as="points">
              <mxPoint x="220" y="290" />
              <mxPoint x="220" y="290" />
            </Array>
          </mxGeometry>
        </mxCell>
        <mxCell id="rk8uSaijc1zRN3GsCyd2-13" value="User Login" style="whiteSpace=wrap;html=1;aspect=fixed;" vertex="1" parent="1">
          <mxGeometry x="192.5" y="200" width="70" height="70" as="geometry" />
        </mxCell>
        <mxCell id="rk8uSaijc1zRN3GsCyd2-85" value="" style="edgeStyle=orthogonalEdgeStyle;rounded=0;orthogonalLoop=1;jettySize=auto;html=1;" edge="1" parent="1" source="rk8uSaijc1zRN3GsCyd2-14" target="rk8uSaijc1zRN3GsCyd2-13">
          <mxGeometry relative="1" as="geometry">
            <Array as="points">
              <mxPoint x="170" y="250" />
              <mxPoint x="170" y="250" />
            </Array>
          </mxGeometry>
        </mxCell>
        <mxCell id="rk8uSaijc1zRN3GsCyd2-14" value="Forgot Password" style="whiteSpace=wrap;html=1;aspect=fixed;" vertex="1" parent="1">
          <mxGeometry x="70" y="200" width="70" height="70" as="geometry" />
        </mxCell>
        <mxCell id="rk8uSaijc1zRN3GsCyd2-15" value="Change password" style="whiteSpace=wrap;html=1;aspect=fixed;fillStyle=dashed;fillColor=#9933FF;" vertex="1" parent="1">
          <mxGeometry x="400" y="-10" width="70" height="70" as="geometry" />
        </mxCell>
        <mxCell id="rk8uSaijc1zRN3GsCyd2-65" style="edgeStyle=orthogonalEdgeStyle;rounded=0;orthogonalLoop=1;jettySize=auto;html=1;entryX=0.75;entryY=0;entryDx=0;entryDy=0;" edge="1" parent="1" source="rk8uSaijc1zRN3GsCyd2-16" target="rk8uSaijc1zRN3GsCyd2-6">
          <mxGeometry relative="1" as="geometry" />
        </mxCell>
        <mxCell id="rk8uSaijc1zRN3GsCyd2-16" value="List job favourite" style="whiteSpace=wrap;html=1;aspect=fixed;fillColor=#f8cecc;strokeColor=#b85450;" vertex="1" parent="1">
          <mxGeometry x="440" y="250" width="70" height="70" as="geometry" />
        </mxCell>
        <mxCell id="rk8uSaijc1zRN3GsCyd2-66" style="edgeStyle=orthogonalEdgeStyle;rounded=0;orthogonalLoop=1;jettySize=auto;html=1;entryX=0.25;entryY=0;entryDx=0;entryDy=0;" edge="1" parent="1" source="rk8uSaijc1zRN3GsCyd2-17" target="rk8uSaijc1zRN3GsCyd2-6">
          <mxGeometry relative="1" as="geometry" />
        </mxCell>
        <mxCell id="rk8uSaijc1zRN3GsCyd2-17" value="List job apllied" style="whiteSpace=wrap;html=1;aspect=fixed;fillColor=#f8cecc;strokeColor=#b85450;" vertex="1" parent="1">
          <mxGeometry x="440" y="350" width="70" height="70" as="geometry" />
        </mxCell>
        <mxCell id="rk8uSaijc1zRN3GsCyd2-18" value="Manage accounts" style="whiteSpace=wrap;html=1;aspect=fixed;fillColor=#e1d5e7;strokeColor=#9673a6;" vertex="1" parent="1">
          <mxGeometry x="700" y="110" width="70" height="70" as="geometry" />
        </mxCell>
        <mxCell id="rk8uSaijc1zRN3GsCyd2-19" value="Chatting" style="whiteSpace=wrap;html=1;aspect=fixed;fillColor=#d5e8d4;strokeColor=#82b366;" vertex="1" parent="1">
          <mxGeometry x="700" y="20" width="70" height="70" as="geometry" />
        </mxCell>
        <mxCell id="rk8uSaijc1zRN3GsCyd2-29" style="edgeStyle=orthogonalEdgeStyle;rounded=0;orthogonalLoop=1;jettySize=auto;html=1;entryX=0.5;entryY=0;entryDx=0;entryDy=0;" edge="1" parent="1" source="rk8uSaijc1zRN3GsCyd2-21" target="rk8uSaijc1zRN3GsCyd2-13">
          <mxGeometry relative="1" as="geometry" />
        </mxCell>
        <mxCell id="rk8uSaijc1zRN3GsCyd2-21" value="User Logout" style="whiteSpace=wrap;html=1;aspect=fixed;fillStyle=dashed;fillColor=#582074;strokeColor=#9673a6;" vertex="1" parent="1">
          <mxGeometry x="192.5" y="80" width="70" height="70" as="geometry" />
        </mxCell>
        <mxCell id="rk8uSaijc1zRN3GsCyd2-22" value="Chatting" style="ellipse;whiteSpace=wrap;html=1;strokeColor=#0a090b;fillStyle=dashed;" vertex="1" parent="1">
          <mxGeometry x="280" width="85" height="60" as="geometry" />
        </mxCell>
        <mxCell id="rk8uSaijc1zRN3GsCyd2-23" value="" style="ellipse;whiteSpace=wrap;html=1;" vertex="1" parent="1">
          <mxGeometry x="170" y="515" width="85" height="60" as="geometry" />
        </mxCell>
        <mxCell id="rk8uSaijc1zRN3GsCyd2-24" value="Apply job" style="ellipse;whiteSpace=wrap;html=1;fillColor=#f8cecc;strokeColor=#b85450;" vertex="1" parent="1">
          <mxGeometry x="640" y="530" width="85" height="60" as="geometry" />
        </mxCell>
        <mxCell id="rk8uSaijc1zRN3GsCyd2-25" value="Notification" style="ellipse;whiteSpace=wrap;html=1;" vertex="1" parent="1">
          <mxGeometry x="450" y="170" width="85" height="60" as="geometry" />
        </mxCell>
        <mxCell id="rk8uSaijc1zRN3GsCyd2-53" value="" style="edgeStyle=orthogonalEdgeStyle;rounded=0;orthogonalLoop=1;jettySize=auto;html=1;" edge="1" parent="1" source="rk8uSaijc1zRN3GsCyd2-26" target="rk8uSaijc1zRN3GsCyd2-6">
          <mxGeometry relative="1" as="geometry" />
        </mxCell>
        <mxCell id="rk8uSaijc1zRN3GsCyd2-26" value="Job list" style="whiteSpace=wrap;html=1;aspect=fixed;" vertex="1" parent="1">
          <mxGeometry x="347.5" y="525" width="70" height="70" as="geometry" />
        </mxCell>
        <mxCell id="rk8uSaijc1zRN3GsCyd2-76" value="job" style="rounded=0;whiteSpace=wrap;html=1;fillColor=#fff2cc;strokeColor=#d6b656;" vertex="1" parent="1">
          <mxGeometry x="700" y="235" width="70" height="40" as="geometry" />
        </mxCell>
        <mxCell id="rk8uSaijc1zRN3GsCyd2-77" value="Manage" style="rounded=0;whiteSpace=wrap;html=1;fillColor=#e1d5e7;strokeColor=#9673a6;" vertex="1" parent="1">
          <mxGeometry x="700" y="195" width="70" height="40" as="geometry" />
        </mxCell>
      </root>
    </mxGraphModel>
  </diagram>
</mxfile>
